<?xml version="1.0" standalone="no"?>
<!DOCTYPE svg PUBLIC "-//W3C//DTD SVG 20010904//EN"
 "http://www.w3.org/TR/2001/REC-SVG-20010904/DTD/svg10.dtd">
<svg version="1.0" xmlns="http://www.w3.org/2000/svg"
 width="719.000000pt" height="719.000000pt" viewBox="0 0 719.000000 719.000000"
 preserveAspectRatio="xMidYMid meet">

<g transform="translate(0.000000,719.000000) scale(0.100000,-0.100000)"
fill="#f2ac30" stroke="none">
<path d="M3361 6869 c-69 -21 -108 -64 -113 -126 -6 -83 55 -133 194 -156 108
-19 233 -77 305 -141 88 -79 180 -248 199 -365 6 -40 5 -42 -26 -52 -64 -23
-216 -101 -299 -156 -241 -156 -467 -408 -571 -636 -19 -42 -38 -76 -42 -77
-5 0 -8 13 -8 29 0 49 -50 329 -80 448 -16 62 -43 152 -60 200 -43 118 -151
328 -206 404 -65 88 -199 224 -271 275 -323 232 -754 176 -1003 -129 -61 -74
-131 -215 -156 -312 -19 -77 -25 -246 -11 -354 8 -63 8 -64 -15 -57 -173 50
-378 61 -511 27 -217 -56 -403 -232 -478 -451 -34 -99 -38 -269 -10 -381 72
-285 289 -530 605 -680 119 -56 227 -88 426 -124 80 -15 150 -29 157 -31 6 -1
-16 -31 -49 -66 -122 -126 -272 -337 -327 -460 -83 -185 -160 -462 -183 -656
l-12 -101 -205 -199 c-113 -109 -212 -211 -220 -225 -13 -24 -12 -29 3 -46 9
-10 36 -24 59 -30 43 -10 336 -53 456 -66 51 -6 67 -12 85 -34 61 -75 201
-211 276 -268 98 -74 320 -187 456 -232 238 -78 446 -106 729 -98 278 8 416
30 640 104 215 71 442 184 655 326 l104 70 36 -20 c19 -11 70 -41 114 -66 43
-25 108 -58 145 -73 36 -15 69 -30 73 -34 4 -3 -73 -54 -171 -113 -300 -180
-296 -171 -296 -632 0 -468 -11 -446 324 -644 371 -220 372 -221 440 -232 96
-15 141 3 427 172 140 83 268 154 285 159 17 5 45 6 62 3 18 -4 142 -72 277
-151 135 -80 266 -153 293 -164 60 -23 144 -23 204 0 66 26 570 327 611 366
18 17 45 56 60 86 l27 55 0 350 0 350 -28 57 c-16 32 -47 74 -70 94 -23 20
-154 103 -292 184 -137 82 -260 158 -272 169 -23 19 -23 21 -23 313 0 322 -6
367 -55 439 -16 22 -47 53 -69 68 -31 21 -350 212 -535 319 -11 6 -5 14 25 32
350 211 616 532 737 890 226 666 -29 1428 -606 1813 -63 42 -77 56 -72 72 36
132 46 349 21 457 -45 196 -191 380 -371 469 -75 37 -94 43 -154 43 -55 1 -75
-3 -98 -20 -41 -30 -66 -85 -57 -129 10 -57 48 -92 158 -145 162 -78 233 -163
258 -309 9 -56 9 -89 -1 -158 -7 -49 -15 -91 -19 -95 -4 -4 -36 4 -71 18 -90
37 -235 72 -370 89 -128 17 -402 21 -496 6 -33 -5 -63 -6 -66 -2 -4 3 -14 33
-24 66 -71 251 -267 491 -492 604 -113 56 -290 90 -362 70z m-1313 -474 c117
-28 222 -94 332 -211 195 -207 316 -522 365 -946 9 -80 16 -240 18 -403 l2
-270 -120 -7 c-66 -4 -128 -9 -137 -12 -20 -5 -98 43 -238 147 -552 409 -853
861 -820 1230 17 179 133 367 271 438 95 48 214 60 327 34z m2813 -544 c313
-67 551 -190 745 -385 115 -115 186 -216 255 -360 93 -196 128 -337 135 -551
7 -178 -9 -296 -61 -452 -68 -204 -152 -340 -305 -493 -190 -190 -365 -302
-586 -373 -195 -63 -255 -72 -489 -72 -183 0 -223 3 -314 23 -289 65 -486 173
-716 394 -129 123 -197 216 -265 361 -99 210 -136 389 -127 606 29 678 514
1206 1207 1315 133 21 392 14 521 -13z m-3801 -404 c89 -25 161 -54 220 -89
43 -26 67 -53 119 -129 168 -246 398 -487 643 -673 60 -44 108 -83 108 -86 0
-3 -46 -21 -102 -40 -57 -19 -164 -66 -238 -104 l-135 -70 -135 1 c-235 1
-515 71 -695 174 -268 153 -412 355 -416 585 -2 133 30 223 113 310 102 108
199 146 358 140 58 -2 130 -11 160 -19z m1839 -1249 c70 -317 192 -551 399
-769 258 -271 552 -438 896 -508 54 -11 100 -22 103 -25 15 -15 -217 -324
-316 -420 l-51 -50 -31 30 c-54 51 -146 181 -196 275 -56 106 -93 139 -160
139 -33 0 -50 -7 -77 -30 -60 -53 -68 -115 -30 -226 8 -25 14 -48 12 -50 -7
-7 -209 129 -288 193 -325 265 -530 616 -596 1022 -21 131 -15 436 11 509 3 9
43 12 153 12 l148 0 23 -102z m-872 -235 c-1 -343 60 -616 203 -909 97 -200
162 -287 359 -485 142 -141 199 -190 294 -253 155 -103 341 -196 450 -226 l87
-23 -32 -20 c-69 -42 -241 -118 -369 -163 -159 -55 -160 -54 -333 32 -254 127
-509 334 -688 559 -259 325 -401 741 -402 1180 -1 244 -6 231 122 317 78 53
288 174 308 178 1 0 1 -84 1 -187z m-866 -937 c81 -402 349 -866 633 -1094 39
-31 83 -65 96 -74 27 -18 -125 33 -232 78 -256 108 -496 316 -569 494 -19 47
-23 78 -27 216 -2 94 1 192 7 235 18 111 65 298 69 269 2 -14 12 -69 23 -124z
m3609 -120 c0 -2 -52 -36 -115 -76 -119 -74 -150 -104 -184 -180 -19 -41 -21
-66 -21 -257 0 -210 0 -213 -21 -213 -28 0 -268 80 -275 92 -3 5 21 39 53 76
145 165 238 297 314 446 47 90 53 95 129 97 25 0 56 5 70 9 29 9 50 12 50 6z
m554 -20 c19 -8 139 -76 267 -153 194 -116 234 -143 245 -170 20 -46 20 -540
0 -586 -11 -27 -53 -56 -262 -182 -331 -199 -293 -196 -555 -38 l-197 118 6
57 c4 50 1 63 -20 95 -15 22 -45 48 -71 61 l-47 23 0 219 c0 135 4 228 11 243
7 15 92 72 247 165 130 78 248 146 262 151 36 14 76 13 114 -3z m-651 -1190
c194 -110 423 -255 441 -279 20 -27 21 -42 24 -307 2 -236 0 -284 -13 -309
-11 -23 -70 -62 -237 -162 -123 -72 -237 -140 -254 -150 -18 -11 -50 -19 -76
-19 -47 0 -38 -5 -486 263 -30 18 -60 44 -68 59 -11 21 -14 88 -14 321 0 276
1 296 19 319 25 32 470 298 513 307 42 10 75 0 151 -43z m1587 -104 c206 -123
248 -153 262 -182 16 -31 18 -68 18 -303 0 -209 -3 -275 -14 -302 -13 -29 -48
-54 -268 -184 -272 -163 -292 -170 -361 -135 -78 40 -454 269 -477 291 l-25
23 -3 293 c-2 265 -1 295 15 320 12 18 105 80 268 177 224 134 255 150 295
150 40 0 71 -16 290 -148z"/>
<path d="M4092 5011 c-103 -35 -183 -149 -205 -291 -21 -138 25 -283 118 -369
59 -54 100 -71 172 -71 149 0 263 121 294 312 28 170 -70 366 -207 418 -67 25
-103 25 -172 1z m192 -112 c31 -15 60 -72 50 -102 -17 -55 -68 -84 -120 -67
-69 23 -86 99 -35 151 31 31 64 36 105 18z"/>
<path d="M5389 5015 c-94 -30 -171 -125 -204 -252 -47 -179 29 -378 174 -457
82 -44 174 -37 248 20 107 82 163 281 123 444 -44 187 -192 293 -341 245z
m188 -120 c34 -24 47 -76 29 -118 -18 -43 -48 -61 -91 -53 -38 7 -62 31 -74
73 -10 35 8 85 36 102 26 15 75 13 100 -4z"/>
<path d="M4430 4127 c-68 -34 -62 -110 18 -198 198 -220 543 -235 763 -32 63
59 99 115 99 156 0 32 -33 73 -65 81 -35 9 -61 -7 -118 -70 -31 -35 -71 -64
-114 -86 -62 -30 -74 -33 -162 -32 -132 0 -195 25 -276 109 -56 58 -92 85
-112 85 -4 0 -19 -6 -33 -13z"/>
</g>
</svg>
