<?xml version="1.0" standalone="no"?>
<!DOCTYPE svg PUBLIC "-//W3C//DTD SVG 20010904//EN"
 "http://www.w3.org/TR/2001/REC-SVG-20010904/DTD/svg10.dtd">
<svg version="1.0" xmlns="http://www.w3.org/2000/svg"
 width="853.000000pt" height="853.000000pt" viewBox="0 0 853.000000 853.000000"
 preserveAspectRatio="xMidYMid meet">

<g transform="translate(0.000000,853.000000) scale(0.100000,-0.100000)"
fill="#f2ac30" stroke="none">
<path d="M3935 8412 c-73 -35 -105 -87 -105 -169 0 -56 24 -107 64 -137 17
-13 86 -42 153 -65 142 -47 204 -76 289 -137 203 -143 314 -391 314 -696 0
-92 -2 -109 -14 -105 -29 11 -133 26 -256 38 -137 12 -292 6 -440 -17 -52 -8
-103 -16 -113 -17 -15 -2 -26 17 -52 89 -104 285 -253 495 -444 624 -191 129
-441 200 -696 200 -139 -1 -196 -34 -221 -129 -14 -57 -5 -118 26 -162 35 -49
91 -66 230 -72 240 -11 396 -74 541 -217 88 -87 140 -164 185 -274 27 -66 56
-175 49 -187 -3 -3 -51 -32 -107 -63 -146 -80 -265 -172 -398 -306 -272 -274
-439 -603 -491 -970 -31 -219 -6 -524 61 -732 16 -52 30 -97 30 -100 0 -3 -44
17 -97 43 -355 176 -786 202 -1180 73 -262 -85 -505 -254 -653 -455 -221 -297
-212 -673 21 -923 148 -158 354 -261 597 -296 45 -7 82 -13 82 -15 0 -1 -13
-31 -29 -67 -48 -105 -64 -182 -65 -303 -1 -130 12 -191 66 -304 77 -161 235
-289 418 -337 97 -25 272 -23 375 6 124 35 114 40 141 -78 76 -339 220 -654
412 -907 26 -33 97 -112 159 -176 l113 -115 -55 -165 c-31 -90 -78 -235 -105
-322 -47 -149 -49 -159 -36 -192 15 -35 59 -65 97 -65 13 0 191 76 396 170
206 93 381 170 389 170 9 0 50 -9 93 -20 267 -68 591 -70 843 -4 220 56 459
177 656 331 459 359 748 870 838 1483 16 113 24 408 15 550 l-5 65 60 2 c647
27 1087 116 1469 298 276 132 434 284 475 456 30 128 21 402 -21 652 -75 448
-258 1047 -413 1354 -56 113 -152 248 -217 306 -108 98 -220 138 -425 151
-104 7 -294 -6 -374 -26 -127 -31 -247 -129 -312 -255 -51 -98 -63 -153 -62
-273 1 -85 6 -121 27 -186 61 -185 192 -314 353 -346 62 -12 59 -2 39 -143 -8
-55 -15 -119 -15 -142 0 -23 -4 -44 -8 -47 -5 -3 -38 10 -73 29 -96 50 -170
69 -274 68 -167 -1 -343 -83 -492 -229 l-83 -81 -33 24 c-17 13 -38 28 -45 32
-10 6 0 28 41 92 131 202 220 437 256 676 16 103 13 342 -4 451 -79 483 -377
900 -808 1127 l-87 47 6 81 c3 45 7 87 9 93 2 6 -1 72 -5 145 -36 530 -329
907 -841 1079 -122 41 -182 47 -234 22z m595 -1656 c188 -39 384 -122 526
-222 140 -99 299 -284 377 -439 133 -266 154 -606 57 -897 -120 -357 -388
-661 -739 -837 -110 -56 -291 -115 -416 -137 -133 -23 -375 -23 -505 0 -389
70 -725 303 -903 626 -48 87 -103 253 -122 370 -100 619 323 1273 958 1485 88
29 183 51 302 69 64 9 392 -3 465 -18z m2492 -957 c113 -23 157 -68 245 -244
139 -277 275 -712 367 -1175 43 -213 60 -373 54 -490 -7 -118 -27 -152 -127
-218 -248 -163 -579 -259 -1112 -323 -155 -19 -237 -23 -522 -23 -333 -1 -338
-1 -332 -21 6 -21 49 -208 60 -262 l6 -31 -91 -21 c-120 -29 -347 -66 -495
-83 -76 -8 -236 -13 -435 -12 -264 0 -341 4 -475 22 -541 73 -966 221 -1393
486 -141 88 -131 69 -85 172 39 87 129 241 175 298 l24 28 53 -32 c261 -153
631 -275 1011 -331 194 -29 598 -37 820 -15 252 24 659 100 675 126 15 24
-153 314 -253 439 -29 35 -52 67 -52 71 0 4 21 25 48 45 26 21 68 58 94 83
l46 44 46 -32 c47 -32 128 -98 201 -164 72 -66 130 -85 192 -66 61 20 96 53
138 130 50 91 166 216 237 255 73 41 153 42 219 3 61 -36 156 -138 263 -286
98 -134 135 -162 215 -162 49 0 85 17 123 57 50 53 59 111 34 212 -50 193 -47
455 9 779 38 221 34 272 -32 334 -42 40 -74 48 -194 48 -182 0 -217 31 -206
181 8 117 36 155 134 178 55 13 253 13 315 0z m-5071 -1174 c260 -39 485 -155
679 -350 l84 -85 -44 -46 c-180 -186 -499 -359 -861 -468 -195 -59 -326 -80
-454 -73 -196 11 -334 65 -441 173 -117 118 -132 230 -53 392 107 219 388 403
689 452 41 6 82 13 90 15 45 8 228 3 311 -10z m334 -1172 c-25 -66 -70 -239
-91 -353 -18 -94 -27 -186 -31 -304 l-6 -168 -31 -13 c-286 -120 -556 -5 -556
237 0 110 52 224 171 374 l48 60 158 52 c87 29 196 70 243 91 99 45 104 47 95
24z m340 -888 c418 -268 945 -455 1495 -531 176 -24 592 -30 766 -10 242 27
549 96 687 155 26 11 48 17 51 13 9 -15 -87 -282 -144 -400 -33 -68 -91 -172
-130 -231 l-71 -109 -102 -21 c-230 -47 -328 -56 -627 -55 -217 0 -315 4 -410
18 -444 62 -775 163 -1140 346 -141 71 -309 166 -333 189 -23 23 -83 191 -113
321 -31 130 -46 389 -23 375 8 -5 50 -32 94 -60z"/>
<path d="M4076 5860 c-36 -11 -82 -54 -106 -100 -61 -118 -221 -188 -365 -160
-88 17 -136 41 -204 104 -33 30 -73 58 -88 62 -15 3 -33 7 -40 9 -23 7 -88
-17 -117 -43 -55 -51 -71 -132 -40 -195 24 -47 131 -153 194 -192 204 -125
511 -126 719 -3 72 43 172 142 210 210 60 105 61 190 3 260 -43 51 -100 67
-166 48z"/>
</g>
</svg>
