<?xml version="1.0" standalone="no"?>
<!DOCTYPE svg PUBLIC "-//W3C//DTD SVG 20010904//EN"
 "http://www.w3.org/TR/2001/REC-SVG-20010904/DTD/svg10.dtd">
<svg version="1.0" xmlns="http://www.w3.org/2000/svg"
 width="843.000000pt" height="843.000000pt" viewBox="0 0 843.000000 843.000000"
 preserveAspectRatio="xMidYMid meet">

<g transform="translate(0.000000,843.000000) scale(0.100000,-0.100000)"
fill="#f2ac30" stroke="none">
<path d="M3535 7594 c-786 -468 -741 -439 -765 -489 -19 -40 -20 -63 -20 -686
l0 -644 -138 -79 c-687 -397 -1106 -650 -1128 -683 -18 -26 -19 -50 -19 -324
l0 -295 27 -41 c54 -82 221 -134 331 -104 23 7 75 36 115 66 39 29 83 56 98
59 58 15 131 -50 155 -138 25 -88 -26 -238 -92 -272 -41 -21 -64 -14 -128 41
-91 78 -123 90 -226 89 -105 -1 -161 -21 -218 -78 -55 -55 -68 -112 -66 -295
0 -84 -3 -157 -8 -161 -7 -7 -736 -431 -1073 -625 -74 -42 -143 -84 -154 -93
-47 -43 -46 -23 -46 -832 0 -857 -5 -803 78 -856 43 -29 903 -533 1194 -701
175 -101 170 -101 374 23 229 138 919 545 1002 591 l70 38 49 -24 c26 -12 219
-126 428 -251 705 -423 805 -480 844 -480 28 0 121 52 465 257 555 331 836
493 858 493 18 0 44 -15 753 -435 504 -298 518 -305 586 -270 54 28 1249 733
1302 768 82 55 78 9 75 867 l-3 755 -22 30 c-23 34 -56 53 -748 455 -258 150
-479 281 -489 291 -18 17 -19 46 -23 726 -4 594 -7 713 -19 739 -16 34 -4 27
-579 359 -198 115 -434 251 -525 304 l-165 96 -5 670 c-4 501 -8 675 -17 691
-7 12 -34 35 -60 52 -56 35 -1262 731 -1310 755 -18 10 -54 17 -80 17 -45 0
-85 -22 -678 -376z m718 60 c54 -28 1141 -656 1151 -665 6 -5 11 -258 14 -601
4 -570 4 -594 -14 -609 -11 -9 -122 -76 -249 -149 -126 -74 -385 -225 -574
-337 -189 -112 -346 -203 -350 -203 -3 0 -274 155 -601 343 l-595 343 -3 595
c-2 558 -1 597 15 611 30 26 1151 687 1166 688 4 0 22 -7 40 -16z m1851 -2435
c304 -177 559 -327 568 -333 13 -10 17 -41 20 -191 2 -114 -1 -180 -7 -182 -6
-2 -33 16 -60 38 -86 72 -146 94 -250 94 -82 0 -97 -3 -157 -33 -80 -39 -183
-144 -222 -226 -53 -113 -56 -299 -6 -427 40 -100 125 -192 231 -246 37 -20
70 -28 128 -31 100 -6 169 14 256 73 96 66 96 67 93 -72 l-3 -118 -446 -265
c-246 -146 -487 -288 -535 -317 -49 -29 -107 -63 -130 -77 l-40 -25 -75 43
c-132 76 -1023 597 -1067 625 l-42 26 2 640 3 639 70 40 c39 22 304 176 590
343 286 167 522 303 524 303 2 0 252 -145 555 -321z m-2606 -29 l582 -334 0
-642 0 -642 -252 -150 c-551 -328 -903 -532 -917 -532 -8 0 -188 100 -400 222
-212 122 -473 271 -578 332 l-193 110 0 123 c0 97 3 125 14 129 8 3 41 -13 75
-36 128 -87 258 -103 376 -46 111 55 228 202 255 321 20 87 15 231 -10 305
-39 115 -120 204 -239 263 -57 28 -73 31 -150 31 -99 -1 -146 -16 -238 -75
-34 -23 -67 -38 -73 -34 -6 4 -10 65 -10 166 l0 159 53 34 c49 31 293 175 837
493 155 91 253 142 266 140 11 -2 282 -154 602 -337z m2912 -827 c14 -9 44
-33 66 -54 53 -47 89 -66 161 -82 l58 -14 3 -71 3 -71 -61 -12 c-41 -8 -88
-28 -141 -60 -89 -54 -134 -62 -181 -31 -65 43 -92 106 -86 204 9 151 97 246
178 191z m-2137 -1064 c23 -12 114 -63 202 -114 88 -51 329 -191 535 -310 206
-119 381 -222 388 -227 9 -8 12 -71 12 -251 0 -222 2 -244 21 -283 38 -79 145
-134 258 -134 52 0 72 6 145 45 96 50 142 57 186 25 81 -58 83 -239 3 -322
-39 -41 -79 -37 -143 13 -75 60 -124 79 -201 79 -116 0 -188 -38 -235 -124
-27 -48 -29 -60 -34 -196 l-5 -145 -160 -96 c-400 -240 -1010 -604 -1017 -607
-4 -2 -117 61 -250 141 -134 79 -394 233 -578 342 -184 109 -343 205 -352 213
-14 12 -18 31 -18 87 0 88 12 104 55 74 17 -11 57 -34 90 -52 55 -29 67 -32
155 -32 74 0 103 4 130 19 114 61 207 166 239 271 78 253 -10 495 -217 597
-114 56 -248 43 -372 -37 -30 -19 -58 -35 -62 -35 -5 0 -7 89 -6 198 l3 197
280 168 c154 92 413 244 575 336 253 144 309 175 328 180 1 1 22 -9 45 -20z
m2600 5 c51 -27 1059 -615 1090 -636 l27 -20 -2 -641 -3 -641 -565 -338 c-311
-186 -572 -340 -581 -343 -15 -5 -542 295 -986 561 -200 119 -183 101 -183
199 0 46 4 86 8 89 5 3 30 -10 55 -28 84 -60 143 -81 227 -80 90 0 153 28 233
102 125 117 181 276 158 449 -21 147 -102 265 -228 329 -54 27 -66 29 -168 29
-106 0 -113 -1 -187 -37 -42 -20 -79 -34 -82 -30 -3 3 -6 88 -6 188 0 178 1
183 23 199 37 27 1126 665 1134 665 2 0 18 -7 36 -16z m-4688 -322 l570 -327
6 -250 c4 -137 10 -263 14 -278 12 -44 88 -113 150 -136 66 -25 160 -27 211
-6 20 8 58 31 85 51 63 46 107 53 153 25 126 -78 87 -371 -49 -371 -24 0 -48
12 -85 41 -76 60 -133 82 -208 81 -74 -1 -123 -15 -179 -53 -67 -46 -83 -93
-91 -260 l-7 -142 -80 -50 c-44 -27 -188 -115 -320 -195 -132 -79 -347 -210
-478 -289 -180 -110 -243 -144 -260 -139 -12 3 -278 155 -592 338 l-570 333
-2 650 -2 650 562 327 c309 180 571 327 582 327 11 0 276 -148 590 -327z"/>
</g>
</svg>
